# xmcd CD database file
#
# Track frame offsets:
#	150
#	11857
#	33547
#	46752
#	67455
#	97565
#	115170
#	140622
#	165727
#	191947
#	204997
#	225677
#	248420
#	262537
#	274137
#
# Disc length: 3847 seconds
#
# Revision: 0
# Processed by: cddbd v1.5.2PL0 Copyright (c) Steve Scherf et al.
# Submitted via: CDex 1.70beta2
#
DISCID=cb0f050f
DTITLE=henri bok - Hero 
DYEAR=2005
DGENRE=Jazz
TTITLE0=All or nothing at all
TTITLE1=4 CC
TTITLE2=Cancao # 1
TTITLE3=7-tempos
TTITLE4=Davi Lindo
TTITLE5=Annssong
TTITLE6=Sotb
TTITLE7=Chameleon
TTITLE8=Mata-Burro
TTITLE9=A primeira vez
TTITLE10=Nothing Toulouse
TTITLE11=Killer joe
TTITLE12=Thanks
TTITLE13=Big Chief
TTITLE14=Petite piece
EXTD=YEAR: 2005
EXTT0=
EXTT1=
EXTT2=
EXTT3=
EXTT4=
EXTT5=
EXTT6=
EXTT7=
EXTT8=
EXTT9=
EXTT10=
EXTT11=
EXTT12=
EXTT13=
EXTT14=
PLAYORDER=
